HIERARCHY
ROOT Hips
{
  OFFSET -30.0536 87.9497 -126.568
  CHANNELS 6 Xposition Yposition Zposition Zrotation Xrotation Yrotation
  JOINT LeftUpLeg
  {
    OFFSET 9.63379 -0.250344 0
    CHANNELS 6 Xposition Yposition Zposition Zrotation Xrotation Yrotation
    JOINT LeftLeg
    {
      OFFSET 0 -40.4779 -1.71313
      CHANNELS 6 Xposition Yposition Zposition Zrotation Xrotation Yrotation
      JOINT LeftFoot
      {
        OFFSET 0.0126047 -40.4416 -0.864524
        CHANNELS 6 Xposition Yposition Zposition Zrotation Xrotation Yrotation
        JOINT LeftToeBase
        {
          OFFSET -0.183287 -12.1867 8.28226
          CHANNELS 6 Xposition Yposition Zposition Zrotation Xrotation Yrotation
          End Site
          {
            OFFSET 0 0 9.15615
          }
        }
      }
    }
  }
  JOINT RightUpLeg
  {
    OFFSET -9.63379 -0.250344 0
    CHANNELS 6 Xposition Yposition Zposition Zrotation Xrotation Yrotation
    JOINT RightLeg
    {
      OFFSET 0 -40.478 -1.71313
      CHANNELS 6 Xposition Yposition Zposition Zrotation Xrotation Yrotation
      JOINT RightFoot
      {
        OFFSET -0.0126047 -40.4414 -0.864524
        CHANNELS 6 Xposition Yposition Zposition Zrotation Xrotation Yrotation
        JOINT RightToeBase
        {
          OFFSET 0.183287 -12.1867 8.28226
          CHANNELS 6 Xposition Yposition Zposition Zrotation Xrotation Yrotation
          End Site
          {
            OFFSET 0.00319481 0 9.156
          }
        }
      }
    }
  }
  JOINT Spine
  {
    OFFSET 0 5.60909 -1.89659
    CHANNELS 6 Xposition Yposition Zposition Zrotation Xrotation Yrotation
    JOINT Spine1
    {
      OFFSET 0 6.56349 1.09934
      CHANNELS 6 Xposition Yposition Zposition Zrotation Xrotation Yrotation
      JOINT Spine2
      {
        OFFSET 0 7.57662 1.04304
        CHANNELS 6 Xposition Yposition Zposition Zrotation Xrotation Yrotation
        JOINT Spine3
        {
          OFFSET 0 8.29213 0.399731
          CHANNELS 6 Xposition Yposition Zposition Zrotation Xrotation Yrotation
          JOINT Spine4
          {
            OFFSET 0 8.9581 -0.526302
            CHANNELS 6 Xposition Yposition Zposition Zrotation Xrotation Yrotation
            JOINT Neck
            {
              OFFSET 0 18.4163 -4.35419
              CHANNELS 6 Xposition Yposition Zposition Zrotation Xrotation Yrotation
              JOINT Head
              {
                OFFSET 0 8.97127 1.78542
                CHANNELS 6 Xposition Yposition Zposition Zrotation Xrotation Yrotation
                End Site
                {
                  OFFSET 0 0 0
                }
              }
            }
            JOINT LeftShoulder
            {
              OFFSET 6.14423 15.3316 -3.79324
              CHANNELS 6 Xposition Yposition Zposition Zrotation Xrotation Yrotation
              JOINT LeftArm
              {
                OFFSET 9.01906 -1.11411 -1.79347
                CHANNELS 6 Xposition Yposition Zposition Zrotation Xrotation Yrotation
                JOINT LeftForeArm
                {
                  OFFSET 27.687 0 0
                  CHANNELS 6 Xposition Yposition Zposition Zrotation Xrotation Yrotation
                  JOINT LeftHand
                  {
                    OFFSET 27.8738 0 0
                    CHANNELS 6 Xposition Yposition Zposition Zrotation Xrotation Yrotation
                    End Site
                    {
                      OFFSET 0 0 0
                    }
                  }
                }
              }
            }
            JOINT RightShoulder
            {
              OFFSET -6.14423 15.3316 -3.79324
              CHANNELS 6 Xposition Yposition Zposition Zrotation Xrotation Yrotation
              JOINT RightArm
              {
                OFFSET -9.01884 -1.11411 -1.79347
                CHANNELS 6 Xposition Yposition Zposition Zrotation Xrotation Yrotation
                JOINT RightForeArm
                {
                  OFFSET -27.0381 0.00109999 0
                  CHANNELS 6 Xposition Yposition Zposition Zrotation Xrotation Yrotation
                  JOINT RightHand
                  {
                    OFFSET -28.5227 0 0
                    CHANNELS 6 Xposition Yposition Zposition Zrotation Xrotation Yrotation
                    End Site
                    {
                      OFFSET 0 0 0
                    }
                  }
                }
              }
            }
          }
        }
      }
    }
  }
}
MOTION
Frames:	4
Frame Time:	0.00833333
-22.6129 91.7114 -139.171 -1.48134 5.6366 -2.53602 9.63379 -0.250344 -7.15256e-007 -1.42767 -5.85252 6.58228 0 -40.4779 -1.71313 -3.59549 2.69873 0.0269849 0.0126047 -40.4416 -0.864524 -0.166991 -0.0374697 -0.00033065 -0.183287 -12.1867 8.28226 1.22054e-011 -1.16919e-011 -1.75726e-013 -9.63379 -0.250344 -7.15256e-007 -3.51278 -30.8739 -9.66516 0 -40.478 -1.71313 -1.39295 55.267 1.80931 -0.0126047 -40.4414 -0.864524 -0.0897743 -0.557751 0.0079602 0.183287 -12.1867 8.28226 6.1401e-012 -2.95501e-011 2.02213e-011 -2.64698e-023 5.60909 -1.89659 2.44516 -0.796559 -0.466338 0 6.56349 1.09934 -0.0723684 -1.57893 -1.13746 0 7.57662 1.04304 -0.0721514 -1.57789 -1.13891 0 8.29213 0.399731 -0.071995 -1.57684 -1.14037 0 8.9581 -0.526302 -0.0718995 -1.57579 -1.14182 0 18.4163 -4.35419 -0.590449 -0.186199 3.61546 1.05879e-022 8.97127 1.78542 3.09525 0.988063 2.65073 6.14423 15.3316 -3.79324 -30.3955 2.18106 -2.47545 9.01906 -1.11411 -1.79347 -50.7583 0.466041 -23.2283 27.687 0 0 6.92791 28.065 -8.13148e-011 27.8738 0 0 3.18933 -1.63722 -9.10167 -6.14423 15.3316 -3.79324 37.3439 2.87018 3.09121 -9.01884 -1.11411 -1.79347 36.9982 18.4655 18.3722 -27.0381 0.00109999 5.96046e-008 0.686952 17.7479 2.04176 -28.5227 0 0 -16.4095 -1.94011 4.10787 
-22.6406 91.7225 -139.014 -1.61549 5.65419 -2.30942 9.63379 -0.250344 -7.15256e-007 -1.26491 -5.84165 6.70955 0 -40.4779 -1.71313 -3.60868 2.81808 0.0556316 0.0126047 -40.4416 -0.864524 -0.161274 0.0122293 -0.000336284 -0.183287 -12.1867 8.28226 1.22054e-011 -1.16919e-011 -1.75726e-013 -9.63379 -0.250344 -7.15256e-007 -3.4216 -31.3367 -9.87708 0 -40.478 -1.71313 -1.37174 54.3677 1.84199 -0.0126047 -40.4414 -0.864524 -0.0749146 -0.665512 0.00794232 0.183287 -12.1867 8.28226 6.1401e-012 -2.95501e-011 2.02213e-011 -2.64698e-023 5.60909 -1.89659 2.42942 -0.781075 -0.460436 0 6.56349 1.09934 -0.0577889 -1.55801 -1.16176 0 7.57662 1.04304 -0.0576638 -1.55696 -1.16317 0 8.29213 0.399731 -0.0575982 -1.55591 -1.16458 0 8.9581 -0.526302 -0.0575923 -1.55485 -1.16599 0 18.4163 -4.35419 -0.505517 -0.237294 3.53024 1.05879e-022 8.97127 1.78542 3.10861 0.932799 2.59058 6.14423 15.3316 -3.79324 -30.3658 2.20411 -2.54335 9.01906 -1.11411 -1.79347 -50.7668 0.535559 -23.5356 27.687 0 0 6.93794 28.1746 -8.13979e-011 27.8738 0 0 3.18258 -1.64327 -9.14858 -6.14423 15.3316 -3.79324 37.3457 2.86037 3.06839 -9.01884 -1.11411 -1.79347 36.9645 18.4022 18.3607 -27.0381 0.00109999 5.96046e-008 0.700628 17.7143 1.9822 -28.5227 0 0 -16.4005 -1.93405 4.07026 
-22.6719 91.7333 -138.86 -1.74384 5.66777 -2.08512 9.63379 -0.250344 -7.15256e-007 -1.08969 -5.82081 6.86726 0 -40.4779 -1.71313 -3.64958 2.92603 0.0851104 0.0126047 -40.4416 -0.864524 -0.155523 0.0627689 -0.000341914 -0.183287 -12.1867 8.28226 1.22054e-011 -1.16919e-011 -1.75726e-013 -9.63379 -0.250344 -7.15256e-007 -3.34728 -31.7584 -10.0911 0 -40.478 -1.71313 -1.27662 53.3706 1.8202 -0.0126047 -40.4414 -0.864524 -0.0598839 -0.775893 0.00792432 0.183287 -12.1867 8.28226 6.1401e-012 -2.95501e-011 2.02213e-011 -2.64698e-023 5.60909 -1.89659 2.40545 -0.764456 -0.453954 0 6.56349 1.09934 -0.0438168 -1.5348 -1.18348 0 7.57662 1.04304 -0.0437888 -1.53375 -1.18484 0 8.29213 0.399731 -0.043819 -1.5327 -1.1862 0 8.9581 -0.526302 -0.0439072 -1.53165 -1.18756 0 18.4163 -4.35419 -0.42018 -0.302454 3.44996 1.05879e-022 8.97127 1.78542 3.12845 0.863864 2.53423 6.14423 15.3316 -3.79324 -30.3439 2.23093 -2.62044 9.01906 -1.11411 -1.79347 -50.7564 0.621114 -23.8275 27.687 0 0 6.93085 28.2735 -8.14734e-011 27.8738 0 0 3.20061 -1.63903 -9.16024 -6.14423 15.3316 -3.79324 37.3387 2.84674 3.0382 -9.01884 -1.11411 -1.79347 36.9516 18.323 18.3482 -27.0381 0.00109999 5.96046e-008 0.720753 17.7133 1.8999 -28.5227 0 0 -16.3975 -1.92704 4.01683 
-22.7057 91.7428 -138.707 -1.86152 5.67735 -1.86133 9.63379 -0.250344 -7.15256e-007 -0.91653 -5.79175 7.03594 0 -40.4779 -1.71313 -3.70163 3.02773 0.11414 0.0126047 -40.4416 -0.864524 -0.149508 0.11392 -0.00034754 -0.183287 -12.1867 8.28226 1.22054e-011 -1.16919e-011 -1.75726e-013 -9.63379 -0.250344 -7.15256e-007 -3.28862 -32.1362 -10.3078 0 -40.478 -1.71313 -1.14218 52.2858 1.77352 -0.0126047 -40.4414 -0.864524 -0.0452035 -0.886236 0.0079062 0.183287 -12.1867 8.28226 6.1401e-012 -2.95501e-011 2.02213e-011 -2.64698e-023 5.60909 -1.89659 2.37405 -0.747312 -0.448101 0 6.56349 1.09934 -0.0314537 -1.51022 -1.20403 0 7.57662 1.04304 -0.0315244 -1.50918 -1.20534 0 8.29213 0.399731 -0.0316515 -1.50813 -1.20664 0 8.9581 -0.526302 -0.0318351 -1.50709 -1.20795 0 18.4163 -4.35419 -0.337497 -0.376205 3.3756 1.05879e-022 8.97127 1.78542 3.14924 0.788908 2.48282 6.14423 15.3316 -3.79324 -30.327 2.25947 -2.70154 9.01906 -1.11411 -1.79347 -50.737 0.713404 -24.104 27.687 0 0 6.91502 28.362 -8.15412e-011 27.8738 0 0 3.22769 -1.63116 -9.16078 -6.14423 15.3316 -3.79324 37.3258 2.83176 3.00584 -9.01884 -1.11411 -1.79347 36.9539 18.2336 18.3307 -27.0381 0.00109999 5.96046e-008 0.747028 17.7144 1.79877 -28.5227 0 0 -16.3839 -1.91701 3.95265 
